# This file uses centimeters as units for non-parametric coordinates.

mtllib TextureLampy.mtl
g default
v 2.344553 8.220095 2.344556
v 1.475257 11.170603 1.475253
v 1.961444 8.220100 2.344556
v 1.234187 11.170605 1.475253
v 1.567233 8.220098 2.344556
v 0.986141 11.170607 1.475253
v 0.986141 11.170607 1.234190
v 1.234187 11.170605 1.234190
v 1.475257 11.170603 1.234190
v 2.344553 8.220095 1.961442
v 1.961444 8.220100 1.961442
v 1.567233 8.220098 1.961442
v 0.986141 11.170607 0.980093
v 1.234187 11.170605 0.980093
v 1.475257 11.170603 0.980093
v 2.344553 8.220095 1.557616
v 1.961444 8.220100 1.557616
v 0.704402 10.649961 0.700080
v 0.000002 8.220096 2.344556
v -0.000000 11.170606 1.475253
v -0.000000 11.170606 1.234190
v 0.000002 8.220096 1.961442
v -0.000000 11.170606 0.980093
v 0.000000 10.649966 0.700080
v -2.344558 8.220099 2.344556
v -1.475251 11.170607 1.475253
v -1.961436 8.220097 2.344556
v -1.234189 11.170601 1.475253
v -1.567229 8.220095 2.344556
v -0.986142 11.170605 1.475253
v -0.986142 11.170605 1.234190
v -1.234189 11.170601 1.234190
v -1.475251 11.170607 1.234190
v -2.344558 8.220099 1.961442
v -1.961436 8.220097 1.961442
v -1.567229 8.220095 1.961442
v -0.986142 11.170606 0.980093
v -1.234189 11.170601 0.980093
v -1.475251 11.170607 0.980093
v -2.344558 8.220099 1.557616
v -1.961436 8.220097 1.557616
v -0.704401 10.649962 0.700080
v 2.344553 8.220095 0.000000
v 1.961444 8.220100 0.000000
v 0.704402 10.649961 -0.000000
v 0.986140 11.170607 -0.000000
v 1.234187 11.170605 -0.000000
v 1.475257 11.170603 -0.000000
v -0.000000 11.170606 -0.000000
v -1.475251 11.170607 -0.000000
v -2.344558 8.220099 0.000000
v -1.961436 8.220097 0.000000
v -1.234189 11.170601 -0.000000
v -0.704401 10.649962 -0.000000
v -0.986142 11.170606 -0.000000
v 2.344553 8.220095 -2.344556
v 1.475257 11.170603 -1.475253
v 1.961444 8.220100 -2.344556
v 1.234187 11.170605 -1.475253
v 1.567233 8.220098 -2.344556
v 0.986141 11.170607 -1.475253
v 0.986141 11.170607 -1.234190
v 1.234187 11.170605 -1.234190
v 1.475257 11.170603 -1.234190
v 2.344553 8.220095 -1.961442
v 1.961444 8.220100 -1.961442
v 1.567233 8.220098 -1.961442
v 0.986141 11.170607 -0.980093
v 1.234187 11.170605 -0.980093
v 1.475257 11.170603 -0.980093
v 2.344553 8.220095 -1.557616
v 1.961444 8.220100 -1.557616
v 0.704402 10.649961 -0.700080
v 0.000002 8.220096 -2.344556
v -0.000000 11.170606 -1.475253
v -0.000000 11.170606 -1.234190
v 0.000002 8.220096 -1.961442
v -0.000000 11.170606 -0.980093
v 0.000000 10.649966 -0.700080
v -2.344558 8.220099 -2.344556
v -1.475251 11.170607 -1.475253
v -1.961436 8.220097 -2.344556
v -1.234189 11.170601 -1.475253
v -1.567229 8.220095 -2.344556
v -0.986142 11.170605 -1.475253
v -0.986142 11.170605 -1.234190
v -1.234189 11.170601 -1.234190
v -1.475251 11.170607 -1.234190
v -2.344558 8.220099 -1.961442
v -1.961436 8.220097 -1.961442
v -1.567229 8.220095 -1.961442
v -0.986142 11.170606 -0.980093
v -1.234189 11.170601 -0.980093
v -1.475251 11.170607 -0.980093
v -2.344558 8.220099 -1.557616
v -1.961436 8.220097 -1.557616
v -0.704401 10.649962 -0.700080
v -1.475254 0.887101 1.475254
v 1.475254 0.887101 1.475254
v -1.475254 3.837608 1.475254
v 1.475254 3.837608 1.475254
v -1.475254 3.837608 -1.475254
v 1.475254 3.837608 -1.475254
v -1.475254 0.887101 -1.475254
v 1.475254 0.887101 -1.475254
v -1.175264 1.975336 1.175264
v 1.175264 1.975336 1.175264
v -1.175264 4.325863 1.175264
v 1.175264 4.325863 1.175264
v -1.175264 4.325863 -1.175264
v 1.175264 4.325863 -1.175264
v -1.175264 1.975336 -1.175264
v 1.175264 1.975336 -1.175264
v -0.429403 1.890726 0.429403
v 0.429403 1.890726 0.429403
v -0.429403 11.033056 0.429403
v 0.429403 11.033056 0.429403
v -0.429403 11.033056 -0.429403
v 0.429403 11.033056 -0.429403
v -0.429403 1.890726 -0.429403
v 0.429403 1.890726 -0.429403
vt 0.709306 0.273314
vt 0.836917 0.318350
vt 0.836917 0.355117
vt 0.709306 0.355117
vt 0.709306 0.252106
vt 0.709306 0.252106
vt 0.709306 0.436920
vt 0.836917 0.391884
vt 0.709306 0.458128
vt 0.709306 0.458128
vt 0.627801 0.227994
vt 0.782756 0.189800
vt 0.782756 0.202460
vt 0.627801 0.248114
vt 0.627801 0.206786
vt 0.782756 0.176455
vt 0.627801 0.124983
vt 0.782756 0.124983
vt 0.627801 0.043179
vt 0.782756 0.073510
vt 0.627801 0.021971
vt 0.782756 0.060165
vt 0.627801 0.001851
vt 0.782756 0.047505
vt 0.575558 0.436920
vt 0.575558 0.355117
vt 0.703170 0.355117
vt 0.703170 0.391884
vt 0.575558 0.273314
vt 0.703170 0.318350
vt 0.575558 0.458128
vt 0.575558 0.458128
vt 0.575558 0.252106
vt 0.575558 0.252106
vt 0.789564 0.021971
vt 0.789564 0.001851
vt 0.944519 0.047505
vt 0.944519 0.060165
vt 0.789564 0.043180
vt 0.944519 0.073510
vt 0.944519 0.124983
vt 0.789564 0.124983
vt 0.944519 0.176455
vt 0.789564 0.206786
vt 0.944519 0.189800
vt 0.789564 0.227994
vt 0.944519 0.202460
vt 0.789564 0.248114
vt 0.649239 0.462120
vt 0.804194 0.462120
vt 0.804194 0.617075
vt 0.649239 0.617075
vt 0.811002 0.502360
vt 0.965957 0.502360
vt 0.965957 0.657315
vt 0.811002 0.657315
vt 0.356240 0.579660
vt 0.479686 0.579660
vt 0.479686 0.703105
vt 0.356240 0.703105
vt 0.226660 0.803874
vt 0.350105 0.803874
vt 0.350105 0.927319
vt 0.226660 0.927319
vt 0.107430 0.001851
vt 0.152533 0.001851
vt 0.152533 0.481989
vt 0.107430 0.481989
vt 0.160052 0.001851
vt 0.205155 0.001851
vt 0.205155 0.481989
vt 0.160052 0.481989
vt 0.458937 0.206786
vt 0.438817 0.206786
vt 0.438817 0.124983
vt 0.458937 0.124983
vt 0.458937 0.227994
vt 0.438817 0.227994
vt 0.458937 0.043180
vt 0.438817 0.043180
vt 0.438817 0.248114
vt 0.458937 0.248114
vt 0.458937 0.021971
vt 0.438817 0.021971
vt 0.418114 0.248114
vt 0.418114 0.227994
vt 0.438817 0.001851
vt 0.458937 0.001851
vt 0.335806 0.248114
vt 0.335806 0.227994
vt 0.418114 0.001851
vt 0.418114 0.021971
vt 0.253498 0.248114
vt 0.253498 0.227994
vt 0.335806 0.001851
vt 0.335806 0.021971
vt 0.232795 0.248114
vt 0.232795 0.227994
vt 0.253498 0.021971
vt 0.253498 0.001851
vt 0.212674 0.248114
vt 0.212674 0.227994
vt 0.232795 0.021971
vt 0.232795 0.001851
vt 0.212674 0.206786
vt 0.232795 0.206786
vt 0.212674 0.021971
vt 0.212674 0.001851
vt 0.212674 0.124983
vt 0.232795 0.124983
vt 0.232795 0.043180
vt 0.212674 0.043180
vt 0.289268 0.498641
vt 0.276241 0.498641
vt 0.276241 0.485980
vt 0.289268 0.485980
vt 0.289268 0.511985
vt 0.276241 0.511985
vt 0.224450 0.498641
vt 0.224450 0.485980
vt 0.301928 0.498641
vt 0.301928 0.485980
vt 0.289268 0.563458
vt 0.276241 0.563458
vt 0.224450 0.511985
vt 0.301928 0.511985
vt 0.172660 0.498641
vt 0.172660 0.485980
vt 0.289268 0.614931
vt 0.276241 0.614931
vt 0.224450 0.563458
vt 0.301928 0.563458
vt 0.172660 0.511985
vt 0.159633 0.498641
vt 0.159633 0.485980
vt 0.301928 0.614931
vt 0.289268 0.628275
vt 0.276241 0.628275
vt 0.224450 0.614931
vt 0.172660 0.563458
vt 0.159633 0.511985
vt 0.146973 0.498641
vt 0.146973 0.485980
vt 0.301928 0.628275
vt 0.289268 0.640935
vt 0.276241 0.640935
vt 0.224450 0.628275
vt 0.172660 0.614931
vt 0.159633 0.563458
vt 0.146973 0.511985
vt 0.301928 0.640935
vt 0.224450 0.640935
vt 0.172660 0.628275
vt 0.159633 0.614931
vt 0.146973 0.563458
vt 0.172660 0.640935
vt 0.159633 0.628275
vt 0.146973 0.614931
vt 0.159633 0.640935
vt 0.146973 0.628275
vt 0.146973 0.640935
vt 0.146991 0.840867
vt 0.146991 0.803874
vt 0.183758 0.803874
vt 0.220525 0.803874
vt 0.220525 0.840867
vt 0.220525 0.877861
vt 0.183758 0.877861
vt 0.146991 0.877861
vt 0.163950 0.644927
vt 0.318905 0.644927
vt 0.318905 0.799882
vt 0.163950 0.799882
vt 0.487476 0.462120
vt 0.642431 0.462120
vt 0.642431 0.617075
vt 0.487476 0.617075
vt 0.744982 0.661307
vt 0.868427 0.661307
vt 0.868427 0.784752
vt 0.744982 0.784752
vt 0.485821 0.621066
vt 0.609266 0.621066
vt 0.609266 0.744511
vt 0.485821 0.744511
vt 0.095753 0.803874
vt 0.140855 0.803874
vt 0.140855 0.848976
vt 0.095753 0.848976
vt 0.044514 0.803874
vt 0.089617 0.803874
vt 0.089617 0.848976
vt 0.044514 0.848976
vt 0.620993 0.060165
vt 0.466038 0.021971
vt 0.466038 0.001851
vt 0.620993 0.047505
vt 0.620993 0.073192
vt 0.466038 0.042674
vt 0.620993 0.124982
vt 0.466038 0.124982
vt 0.620993 0.176773
vt 0.466038 0.207290
vt 0.620993 0.189800
vt 0.466038 0.227993
vt 0.620993 0.202460
vt 0.466038 0.248114
vt 0.569423 0.334414
vt 0.441811 0.334414
vt 0.441811 0.297420
vt 0.569423 0.252106
vt 0.569423 0.416722
vt 0.441811 0.371408
vt 0.843053 0.310420
vt 0.843053 0.297760
vt 0.998008 0.252106
vt 0.998008 0.272226
vt 0.843053 0.323447
vt 0.998008 0.292929
vt 0.843053 0.375237
vt 0.998008 0.375237
vt 0.998008 0.457545
vt 0.843053 0.427027
vt 0.998008 0.478248
vt 0.843053 0.440054
vt 0.998008 0.498369
vt 0.843053 0.452715
vt 0.308063 0.334414
vt 0.308064 0.252106
vt 0.435675 0.297420
vt 0.435676 0.334414
vt 0.435675 0.371408
vt 0.308063 0.416722
vt 0.001992 0.644927
vt 0.156947 0.644927
vt 0.156947 0.799882
vt 0.001992 0.799882
vt 0.325713 0.575668
vt 0.325713 0.420713
vt 0.480668 0.420713
vt 0.480668 0.575668
vt 0.874563 0.661307
vt 0.998008 0.661307
vt 0.998008 0.784752
vt 0.874563 0.784752
vt 0.615402 0.621066
vt 0.738847 0.621066
vt 0.738847 0.744511
vt 0.615402 0.744511
vt 0.001992 0.001851
vt 0.047095 0.001851
vt 0.047095 0.481989
vt 0.001992 0.481989
vt 0.054809 0.001851
vt 0.099911 0.001851
vt 0.099911 0.481989
vt 0.054809 0.481989
vn -0.000014 -1.000000 0.000000
vn -0.737758 -0.658029 -0.150703
vn -0.805809 -0.592175 0.000000
vn -0.000014 -1.000000 0.000000
vn 0.000001 0.282617 0.959233
vn 0.000002 0.282618 0.959233
vn 0.000004 0.282618 0.959233
vn 0.000004 0.282618 0.959233
vn -0.462549 -0.754541 -0.465529
vn -0.628838 -0.777537 0.000000
vn -0.000000 0.282617 0.959233
vn -0.000000 0.282617 0.959233
vn 0.000008 1.000000 0.000001
vn 0.000001 1.000000 -0.000001
vn 0.000001 1.000000 0.000000
vn 0.000008 1.000000 0.000000
vn 0.000008 1.000000 0.000000
vn 0.000008 1.000000 0.000000
vn 0.959233 0.282615 0.000000
vn 0.959233 0.282615 0.000000
vn 0.959233 0.282615 0.000000
vn 0.959233 0.282615 0.000000
vn -0.000003 -1.000000 0.000000
vn -0.417340 -0.812311 -0.407404
vn -0.000014 -1.000000 0.000000
vn -0.000014 -1.000000 0.000000
vn 0.000002 -1.000000 0.000000
vn -0.154220 -0.659480 -0.735732
vn 0.000008 1.000000 -0.000000
vn 0.000001 1.000000 -0.000001
vn 0.000008 1.000000 0.000000
vn 0.959233 0.282615 0.000000
vn 0.959233 0.282615 0.000000
vn -0.000000 0.282617 0.959233
vn -0.000000 0.282617 0.959233
vn -0.000001 1.000000 0.000000
vn -0.000001 1.000000 0.000000
vn 0.000001 -1.000000 0.000000
vn 0.000000 -0.593106 -0.805125
vn -0.000001 1.000000 0.000000
vn -0.000000 -0.776880 -0.629648
vn -0.000006 -1.000000 0.000000
vn -0.000006 -1.000000 0.000000
vn 0.805807 -0.592178 0.000000
vn 0.737755 -0.658032 -0.150701
vn 0.000001 0.282617 0.959233
vn 0.000003 0.282616 0.959233
vn 0.000003 0.282616 0.959233
vn 0.000002 0.282617 0.959233
vn 0.628839 -0.777536 0.000000
vn 0.462550 -0.754540 -0.465529
vn -0.000000 0.282617 0.959233
vn -0.000000 0.282617 0.959233
vn 0.000003 1.000000 -0.000001
vn 0.000004 1.000000 0.000000
vn -0.000004 1.000000 0.000000
vn -0.000004 1.000000 0.000001
vn 0.000024 1.000000 0.000000
vn 0.000024 1.000000 0.000000
vn -0.959233 0.282618 0.000000
vn -0.959232 0.282618 0.000000
vn -0.959232 0.282618 0.000000
vn -0.959233 0.282618 0.000000
vn -0.000005 -1.000000 0.000000
vn -0.000006 -1.000000 0.000000
vn -0.000006 -1.000000 0.000000
vn 0.417337 -0.812315 -0.407400
vn -0.000000 -1.000000 0.000000
vn 0.154222 -0.659480 -0.735732
vn 0.000002 1.000000 -0.000000
vn -0.000004 1.000000 0.000000
vn 0.000024 1.000000 0.000000
vn -0.959233 0.282618 0.000000
vn -0.959233 0.282618 0.000000
vn -0.000000 -0.776880 0.629648
vn -0.462549 -0.754541 0.465529
vn 0.462550 -0.754540 0.465529
vn 0.959233 0.282615 0.000000
vn 0.959233 0.282615 0.000000
vn 0.000008 1.000000 0.000000
vn 0.000008 1.000000 0.000000
vn 0.000001 1.000000 0.000000
vn -0.000000 1.000000 0.000000
vn -0.959233 0.282618 0.000000
vn -0.959233 0.282618 0.000000
vn 0.000002 1.000000 0.000000
vn 0.000024 1.000000 0.000000
vn -0.000004 1.000000 0.000000
vn -0.000014 -1.000000 0.000000
vn -0.737758 -0.658029 0.150703
vn 0.000001 0.282617 -0.959233
vn 0.000003 0.282618 -0.959233
vn 0.000003 0.282618 -0.959233
vn 0.000002 0.282617 -0.959233
vn -0.000000 0.282617 -0.959233
vn -0.000000 0.282617 -0.959233
vn 0.000008 1.000000 -0.000001
vn 0.000008 1.000000 0.000000
vn 0.000001 1.000000 0.000000
vn 0.000001 1.000000 0.000001
vn 0.000008 1.000000 0.000000
vn 0.000008 1.000000 0.000000
vn 0.959233 0.282615 0.000000
vn 0.959233 0.282615 0.000000
vn 0.959233 0.282615 0.000000
vn 0.959233 0.282615 0.000000
vn -0.000003 -1.000000 0.000000
vn -0.000014 -1.000000 0.000000
vn -0.000014 -1.000000 0.000000
vn -0.417340 -0.812311 0.407404
vn 0.000002 -1.000000 0.000000
vn -0.154220 -0.659480 0.735733
vn 0.000008 1.000000 0.000000
vn 0.000001 1.000000 0.000001
vn 0.000008 1.000000 0.000000
vn 0.959233 0.282615 0.000000
vn 0.959233 0.282615 0.000000
vn -0.000000 0.282617 -0.959233
vn -0.000000 0.282617 -0.959233
vn -0.000001 1.000000 0.000000
vn -0.000001 1.000000 0.000000
vn 0.000001 -1.000000 0.000000
vn 0.000000 -0.593106 0.805125
vn -0.000001 1.000000 0.000000
vn -0.000006 -1.000000 0.000000
vn 0.737755 -0.658032 0.150701
vn 0.000001 0.282617 -0.959233
vn 0.000002 0.282617 -0.959233
vn 0.000004 0.282616 -0.959233
vn 0.000004 0.282616 -0.959233
vn -0.000000 0.282617 -0.959233
vn -0.000000 0.282617 -0.959233
vn 0.000003 1.000000 0.000001
vn -0.000004 1.000000 -0.000001
vn -0.000004 1.000000 0.000000
vn 0.000004 1.000000 0.000000
vn 0.000024 1.000000 0.000000
vn 0.000024 1.000000 0.000000
vn -0.959233 0.282618 0.000000
vn -0.959233 0.282618 0.000000
vn -0.959233 0.282618 0.000000
vn -0.959232 0.282618 0.000000
vn -0.000005 -1.000000 0.000000
vn 0.417337 -0.812315 0.407400
vn -0.000006 -1.000000 0.000000
vn -0.000006 -1.000000 0.000000
vn -0.000000 -1.000000 0.000000
vn 0.154222 -0.659480 0.735732
vn 0.000002 1.000000 0.000000
vn -0.000004 1.000000 -0.000000
vn 0.000024 1.000000 0.000000
vn -0.959233 0.282618 0.000000
vn -0.959233 0.282618 0.000000
vn 0.000000 0.000000 1.000000
vn 0.000000 0.000000 1.000000
vn 0.000000 0.000000 1.000000
vn 0.000000 0.000000 1.000000
vn 0.000000 1.000000 0.000000
vn 0.000000 1.000000 0.000000
vn 0.000000 1.000000 0.000000
vn 0.000000 1.000000 0.000000
vn 0.000000 0.000000 -1.000000
vn 0.000000 0.000000 -1.000000
vn 0.000000 0.000000 -1.000000
vn 0.000000 0.000000 -1.000000
vn 0.000000 -1.000000 0.000000
vn 0.000000 -1.000000 0.000000
vn 0.000000 -1.000000 0.000000
vn 0.000000 -1.000000 0.000000
vn 1.000000 0.000000 0.000000
vn 1.000000 0.000000 0.000000
vn 1.000000 0.000000 0.000000
vn 1.000000 0.000000 0.000000
vn -1.000000 0.000000 0.000000
vn -1.000000 0.000000 0.000000
vn -1.000000 0.000000 0.000000
vn -1.000000 0.000000 0.000000
vn 0.000000 0.000000 1.000000
vn 0.000000 0.000000 1.000000
vn 0.000000 0.000000 1.000000
vn 0.000000 0.000000 1.000000
vn 0.000000 1.000000 0.000000
vn 0.000000 1.000000 0.000000
vn 0.000000 1.000000 0.000000
vn 0.000000 1.000000 0.000000
vn 0.000000 0.000000 -1.000000
vn 0.000000 0.000000 -1.000000
vn 0.000000 0.000000 -1.000000
vn 0.000000 0.000000 -1.000000
vn 0.000000 -1.000000 0.000000
vn 0.000000 -1.000000 0.000000
vn 0.000000 -1.000000 0.000000
vn 0.000000 -1.000000 0.000000
vn 1.000000 0.000000 0.000000
vn 1.000000 0.000000 0.000000
vn 1.000000 0.000000 0.000000
vn 1.000000 0.000000 0.000000
vn -1.000000 0.000000 0.000000
vn -1.000000 0.000000 0.000000
vn -1.000000 0.000000 0.000000
vn -1.000000 0.000000 0.000000
vn 0.000000 0.000000 1.000000
vn 0.000000 0.000000 1.000000
vn 0.000000 0.000000 1.000000
vn 0.000000 0.000000 1.000000
vn 0.000000 1.000000 0.000000
vn 0.000000 1.000000 0.000000
vn 0.000000 1.000000 0.000000
vn 0.000000 1.000000 0.000000
vn 0.000000 0.000000 -1.000000
vn 0.000000 0.000000 -1.000000
vn 0.000000 0.000000 -1.000000
vn 0.000000 0.000000 -1.000000
vn 0.000000 -1.000000 0.000000
vn 0.000000 -1.000000 0.000000
vn 0.000000 -1.000000 0.000000
vn 0.000000 -1.000000 0.000000
vn 1.000000 0.000000 0.000000
vn 1.000000 0.000000 0.000000
vn 1.000000 0.000000 0.000000
vn 1.000000 0.000000 0.000000
vn -1.000000 0.000000 0.000000
vn -1.000000 0.000000 0.000000
vn -1.000000 0.000000 0.000000
vn -1.000000 0.000000 0.000000
s 1
g group1_pasted__pCube1
usemtl blinn1SG
f 16/73/1 17/74/2 44/75/3 43/76/4
s 2
f 4/194/5 3/195/6 1/196/7 2/197/8
s 1
f 17/1/2 18/2/9 45/3/10 44/4/3
s 2
f 6/198/11 5/199/12 3/195/6 4/194/5
s 3
f 8/113/13 7/114/14 6/115/15 4/116/16
f 9/121/17 8/113/13 4/116/16 2/122/18
s 4
f 10/11/19 9/12/20 2/13/21 1/14/22
s 1
f 3/81/23 11/78/24 10/77/25 1/82/26
f 5/85/27 12/86/28 11/78/24 3/81/23
s 3
f 14/117/29 13/118/30 7/114/14 8/113/13
f 15/126/31 14/117/29 8/113/13 9/121/17
s 4
f 16/15/32 15/16/33 9/12/20 10/11/19
s 1
f 10/77/25 11/78/24 17/74/2 16/73/1
f 11/5/24 12/6/28 18/2/9 17/1/2
s 2
f 20/200/34 19/201/35 5/199/12 6/198/11
s 3
f 21/119/36 20/120/37 6/115/15 7/114/14
s 1
f 19/89/38 22/90/39 12/86/28 5/85/27
s 3
f 23/125/40 21/119/36 7/114/14 13/118/30
s 1
f 22/208/39 24/209/41 18/210/9 12/211/28
f 40/105/42 51/109/43 52/110/44 41/106/45
s 2
f 28/204/46 26/206/47 25/207/48 27/205/49
s 1
f 41/25/45 52/26/44 54/27/50 42/28/51
s 2
f 30/202/52 28/204/46 27/205/49 29/203/53
s 3
f 32/134/54 28/135/55 30/128/56 31/127/57
f 33/142/58 26/143/59 28/135/55 32/134/54
s 9
f 34/35/60 25/36/61 26/37/62 33/38/63
s 1
f 27/97/64 25/101/65 34/102/66 35/98/67
f 29/93/68 27/97/64 35/98/67 36/94/69
s 3
f 38/141/70 32/134/54 31/127/57 37/133/71
f 39/150/72 33/142/58 32/134/54 38/141/70
s 9
f 40/39/73 34/35/60 33/38/63 39/40/74
s 1
f 34/102/66 40/105/42 41/106/45 35/98/67
f 35/31/67 41/25/45 42/28/51 36/32/69
f 79/162/75 73/163/76 45/164/10 18/165/9 24/166/41 42/167/51 54/168/50 97/169/77
s 2
f 20/200/34 30/202/52 29/203/53 19/201/35
s 3
f 21/119/36 31/127/57 30/128/56 20/120/37
s 1
f 19/89/38 29/93/68 36/94/69 22/90/39
s 3
f 23/125/40 37/133/71 31/127/57 21/119/36
s 1
f 22/208/39 36/212/69 42/213/51 24/209/41
s 4
f 43/17/78 48/18/79 15/16/33 16/15/32
s 3
f 48/132/80 47/123/81 14/117/29 15/126/31
f 47/123/81 46/124/82 13/118/30 14/117/29
f 46/124/82 49/131/83 23/125/40 13/118/30
s 9
f 50/41/84 51/42/85 40/39/73 39/40/74
s 3
f 53/149/86 50/155/87 39/150/72 38/141/70
f 55/140/88 53/149/86 38/141/70 37/133/71
f 49/131/83 55/140/88 37/133/71 23/125/40
s 1
f 71/79/89 43/76/4 44/75/3 72/80/90
s 10
f 59/214/91 57/215/92 56/216/93 58/217/94
s 1
f 72/7/90 44/4/3 45/3/10 73/8/76
s 10
f 61/218/95 59/214/91 58/217/94 60/219/96
s 3
f 63/137/97 59/145/98 61/146/99 62/138/100
f 64/144/101 57/151/102 59/145/98 63/137/97
s 4
f 65/21/103 56/23/104 57/24/105 64/22/106
s 1
f 58/87/107 56/88/108 65/83/109 66/84/110
f 60/91/111 58/87/107 66/84/110 67/92/112
s 3
f 69/129/113 63/137/97 62/138/100 68/130/114
f 70/136/115 64/144/101 63/137/97 69/129/113
s 4
f 71/19/116 65/21/103 64/22/106 70/20/117
s 1
f 65/83/109 71/79/89 72/80/90 66/84/110
f 66/9/110 72/7/90 73/8/76 67/10/112
s 10
f 75/220/118 61/218/95 60/219/96 74/221/119
s 3
f 76/147/120 62/138/100 61/146/99 75/152/121
s 1
f 74/95/122 60/91/111 67/92/112 77/96/123
s 3
f 78/139/124 68/130/114 62/138/100 76/147/120
s 1
f 77/228/123 67/229/112 73/230/76 79/231/75
f 95/112/125 96/111/126 52/110/44 51/109/43
s 10
f 83/225/127 82/224/128 80/226/129 81/227/130
s 1
f 96/29/126 97/30/77 54/27/50 52/26/44
s 10
f 85/223/131 84/222/132 82/224/128 83/225/127
s 3
f 87/157/133 86/153/134 85/156/135 83/159/136
f 88/160/137 87/157/133 83/159/136 81/161/138
s 9
f 89/46/139 88/45/140 81/47/141 80/48/142
s 1
f 82/104/143 90/103/144 89/107/145 80/108/146
f 84/100/147 91/99/148 90/103/144 82/104/143
s 3
f 93/154/149 92/148/150 86/153/134 87/157/133
f 94/158/151 93/154/149 87/157/133 88/160/137
s 9
f 95/44/152 94/43/153 88/45/140 89/46/139
s 1
f 89/107/145 90/103/144 96/111/126 95/112/125
f 90/33/144 91/34/148 97/30/77 96/29/126
s 10
f 75/220/118 74/221/119 84/222/132 85/223/131
s 3
f 76/147/120 75/152/121 85/156/135 86/153/134
s 1
f 74/95/122 77/96/123 91/99/148 84/100/147
s 3
f 78/139/124 76/147/120 86/153/134 92/148/150
s 1
f 77/228/123 79/231/75 97/232/77 91/233/148
s 4
f 43/17/78 71/19/116 70/20/117 48/18/79
s 3
f 48/132/80 70/136/115 69/129/113 47/123/81
f 47/123/81 69/129/113 68/130/114 46/124/82
f 46/124/82 68/130/114 78/139/124 49/131/83
s 9
f 50/41/84 94/43/153 95/44/152 51/42/85
s 3
f 53/149/86 93/154/149 94/158/151 50/155/87
f 55/140/88 92/148/150 93/154/149 53/149/86
f 49/131/83 78/139/124 92/148/150 55/140/88
s off
usemtl standardSurface2SG
f 98/234/154 99/235/155 101/236/156 100/237/157
f 100/170/158 101/171/159 103/172/160 102/173/161
f 102/238/162 103/239/163 105/240/164 104/241/165
f 104/174/166 105/175/167 99/176/168 98/177/169
f 99/49/170 105/50/171 103/51/172 101/52/173
f 104/53/174 98/54/175 100/55/176 102/56/177
f 106/242/178 107/243/179 109/244/180 108/245/181
f 108/178/182 109/179/183 111/180/184 110/181/185
f 110/246/186 111/247/187 113/248/188 112/249/189
usemtl initialShadingGroup
f 112/182/190 113/183/191 107/184/192 106/185/193
usemtl standardSurface2SG
f 107/57/194 113/58/195 111/59/196 109/60/197
f 112/61/198 106/62/199 108/63/200 110/64/201
usemtl lambert2SG
f 114/250/202 115/251/203 117/252/204 116/253/205
usemtl initialShadingGroup
f 116/186/206 117/187/207 119/188/208 118/189/209
usemtl lambert2SG
f 118/254/210 119/255/211 121/256/212 120/257/213
usemtl initialShadingGroup
f 120/190/214 121/191/215 115/192/216 114/193/217
usemtl lambert2SG
f 115/65/218 121/66/219 119/67/220 117/68/221
f 120/69/222 114/70/223 116/71/224 118/72/225
